#pragma bank 6

#include "songs.h"
#include "../../include/huge/include/hUGEDriver.h"
#include <stddef.h>

static const unsigned char order_cnt = 2;

static const unsigned char P0[] = {
    DN(D_3, 5, 0x000),
    DN(E_4, 5, 0x000),
    DN(F_4, 5, 0x000),
    DN(F_5, 5, 0x000),
    DN(D_3, 5, 0x000),
    DN(E_4, 5, 0x000),
    DN(F_4, 5, 0x000),
    DN(F_5, 5, 0x000),
    DN(D_3, 5, 0x000),
    DN(E_4, 5, 0x000),
    DN(F_4, 5, 0x000),
    DN(F_5, 5, 0x000),
    DN(D_3, 5, 0x000),
    DN(E_4, 5, 0x000),
    DN(F_4, 5, 0x000),
    DN(F_5, 5, 0x000),
    DN(D_3, 2, 0x000),
    DN(D_4, 2, 0x000),
    DN(E_4, 2, 0x000),
    DN(E_5, 2, 0x000),
    DN(D_3, 2, 0x000),
    DN(D_4, 2, 0x000),
    DN(E_4, 2, 0x000),
    DN(E_5, 2, 0x000),
    DN(D_3, 2, 0x000),
    DN(D_4, 2, 0x000),
    DN(E_4, 2, 0x000),
    DN(E_5, 2, 0x000),
    DN(D_3, 2, 0x000),
    DN(D_4, 2, 0x000),
    DN(E_4, 2, 0x000),
    DN(E_5, 2, 0x000),
    DN(D_3, 5, 0x000),
    DN(B_3, 5, 0x000),
    DN(C_4, 5, 0x000),
    DN(G_5, 5, 0x000),
    DN(D_3, 5, 0x000),
    DN(B_3, 5, 0x000),
    DN(C_4, 5, 0x000),
    DN(G_5, 5, 0x000),
    DN(D_3, 5, 0x000),
    DN(B_3, 5, 0x000),
    DN(C_4, 5, 0x000),
    DN(G_5, 5, 0x000),
    DN(D_3, 5, 0x000),
    DN(B_3, 5, 0x000),
    DN(C_4, 5, 0x000),
    DN(G_5, 5, 0x000),
    DN(D_3, 2, 0x000),
    DN(E_3, 2, 0x000),
    DN(F_4, 2, 0x000),
    DN(G_4, 2, 0x000),
    DN(D_3, 2, 0x000),
    DN(E_3, 2, 0x000),
    DN(F_4, 2, 0x000),
    DN(G_4, 2, 0x000),
    DN(D_3, 2, 0x000),
    DN(E_3, 2, 0x000),
    DN(F_4, 2, 0x000),
    DN(G_4, 2, 0x000),
    DN(D_3, 2, 0x000),
    DN(E_3, 2, 0x000),
    DN(F_4, 2, 0x000),
    DN(G_4, 2, 0x000),
};
static const unsigned char P1[] = {
    DN(___, 0, 0x000),
    DN(___, 0, 0x000),
    DN(___, 0, 0x000),
    DN(___, 0, 0x000),
    DN(___, 0, 0x000),
    DN(___, 0, 0x000),
    DN(___, 0, 0x000),
    DN(___, 0, 0x000),
    DN(___, 0, 0x000),
    DN(___, 0, 0x000),
    DN(___, 0, 0x000),
    DN(___, 0, 0x000),
    DN(___, 0, 0x000),
    DN(___, 0, 0x000),
    DN(___, 0, 0x000),
    DN(___, 0, 0x000),
    DN(___, 0, 0x000),
    DN(___, 0, 0x000),
    DN(___, 0, 0x000),
    DN(___, 0, 0x000),
    DN(___, 0, 0x000),
    DN(___, 0, 0x000),
    DN(___, 0, 0x000),
    DN(___, 0, 0x000),
    DN(___, 0, 0x000),
    DN(___, 0, 0x000),
    DN(___, 0, 0x000),
    DN(___, 0, 0x000),
    DN(___, 0, 0x000),
    DN(___, 0, 0x000),
    DN(___, 0, 0x000),
    DN(___, 0, 0x000),
    DN(___, 0, 0x000),
    DN(___, 0, 0x000),
    DN(___, 0, 0x000),
    DN(___, 0, 0x000),
    DN(___, 0, 0x000),
    DN(___, 0, 0x000),
    DN(___, 0, 0x000),
    DN(___, 0, 0x000),
    DN(___, 0, 0x000),
    DN(___, 0, 0x000),
    DN(___, 0, 0x000),
    DN(___, 0, 0x000),
    DN(___, 0, 0x000),
    DN(___, 0, 0x000),
    DN(___, 0, 0x000),
    DN(___, 0, 0x000),
    DN(___, 0, 0x000),
    DN(___, 0, 0x000),
    DN(___, 0, 0x000),
    DN(___, 0, 0x000),
    DN(___, 0, 0x000),
    DN(___, 0, 0x000),
    DN(___, 0, 0x000),
    DN(___, 0, 0x000),
    DN(___, 0, 0x000),
    DN(___, 0, 0x000),
    DN(___, 0, 0x000),
    DN(___, 0, 0x000),
    DN(___, 0, 0x000),
    DN(___, 0, 0x000),
    DN(___, 0, 0x000),
    DN(___, 0, 0x000),
};
static const unsigned char P2[] = {
    DN(D_5, 2, 0x000),
    DN(___, 0, 0x000),
    DN(___, 0, 0x000),
    DN(___, 0, 0x000),
    DN(___, 0, 0x000),
    DN(___, 0, 0x000),
    DN(___, 0, 0x000),
    DN(___, 0, 0x000),
    DN(___, 0, 0x000),
    DN(___, 0, 0x000),
    DN(___, 0, 0x000),
    DN(___, 0, 0x000),
    DN(___, 0, 0x000),
    DN(___, 0, 0x000),
    DN(___, 0, 0x000),
    DN(___, 0, 0x000),
    DN(D_4, 2, 0x000),
    DN(___, 0, 0x000),
    DN(___, 0, 0x000),
    DN(___, 0, 0x000),
    DN(___, 0, 0x000),
    DN(___, 0, 0x000),
    DN(___, 0, 0x000),
    DN(___, 0, 0x000),
    DN(___, 0, 0x000),
    DN(___, 0, 0x000),
    DN(___, 0, 0x000),
    DN(___, 0, 0x000),
    DN(___, 0, 0x000),
    DN(___, 0, 0x000),
    DN(___, 0, 0x000),
    DN(___, 0, 0x000),
    DN(C_4, 2, 0x000),
    DN(___, 0, 0x000),
    DN(___, 0, 0x000),
    DN(___, 0, 0x000),
    DN(___, 0, 0x000),
    DN(___, 0, 0x000),
    DN(___, 0, 0x000),
    DN(___, 0, 0x000),
    DN(___, 0, 0x000),
    DN(___, 0, 0x000),
    DN(___, 0, 0x000),
    DN(___, 0, 0x000),
    DN(___, 0, 0x000),
    DN(___, 0, 0x000),
    DN(___, 0, 0x000),
    DN(___, 0, 0x000),
    DN(G_4, 2, 0x000),
    DN(___, 0, 0x000),
    DN(___, 0, 0x000),
    DN(___, 0, 0x000),
    DN(___, 0, 0x000),
    DN(___, 0, 0x000),
    DN(___, 0, 0x000),
    DN(___, 0, 0x000),
    DN(___, 0, 0x000),
    DN(___, 0, 0x000),
    DN(___, 0, 0x000),
    DN(___, 0, 0x000),
    DN(___, 0, 0x000),
    DN(___, 0, 0x000),
    DN(___, 0, 0x000),
    DN(___, 0, 0x000),
};
static const unsigned char P3[] = {
    DN(D_8, 1, 0x000),
    DN(___, 0, 0x000),
    DN(D_8, 1, 0x000),
    DN(___, 1, 0x000),
    DN(D_8, 3, 0x000),
    DN(___, 1, 0x000),
    DN(D_8, 1, 0x000),
    DN(D_7, 2, 0x000),
    DN(D_8, 1, 0x000),
    DN(___, 0, 0x000),
    DN(D_8, 1, 0x000),
    DN(___, 0, 0x000),
    DN(D_8, 3, 0x000),
    DN(___, 0, 0x000),
    DN(D_8, 1, 0x000),
    DN(___, 0, 0x000),
    DN(D_8, 1, 0x000),
    DN(___, 0, 0x000),
    DN(D_8, 1, 0x000),
    DN(___, 1, 0x000),
    DN(D_8, 3, 0x000),
    DN(___, 1, 0x000),
    DN(D_8, 1, 0x000),
    DN(D_7, 2, 0x000),
    DN(D_8, 1, 0x000),
    DN(___, 0, 0x000),
    DN(D_8, 1, 0x000),
    DN(___, 0, 0x000),
    DN(D_8, 3, 0x000),
    DN(___, 0, 0x000),
    DN(D_8, 1, 0x000),
    DN(___, 0, 0x000),
    DN(D_8, 1, 0x000),
    DN(___, 0, 0x000),
    DN(D_8, 1, 0x000),
    DN(___, 1, 0x000),
    DN(D_8, 3, 0x000),
    DN(___, 1, 0x000),
    DN(D_8, 1, 0x000),
    DN(D_7, 2, 0x000),
    DN(D_8, 1, 0x000),
    DN(___, 0, 0x000),
    DN(D_8, 1, 0x000),
    DN(___, 0, 0x000),
    DN(D_8, 3, 0x000),
    DN(___, 0, 0x000),
    DN(D_8, 1, 0x000),
    DN(___, 0, 0x000),
    DN(D_8, 1, 0x000),
    DN(___, 0, 0x000),
    DN(D_8, 1, 0x000),
    DN(___, 1, 0x000),
    DN(D_8, 3, 0x000),
    DN(___, 1, 0x000),
    DN(D_8, 1, 0x000),
    DN(D_7, 2, 0x000),
    DN(D_8, 1, 0x000),
    DN(___, 0, 0x000),
    DN(D_8, 1, 0x000),
    DN(___, 0, 0x000),
    DN(D_8, 3, 0x000),
    DN(___, 0, 0x000),
    DN(D_8, 1, 0x000),
    DN(___, 0, 0x000),
};

static const unsigned char *const order1[] = {P0};
static const unsigned char *const order2[] = {P1};
static const unsigned char *const order3[] = {P2};
static const unsigned char *const order4[] = {P3};

static const hUGEDutyInstr_t duty_instruments[] = {
    {8, 0, 240, 0, 128},
    {8, 64, 240, 0, 128},
    {8, 128, 240, 0, 128},
    {8, 192, 240, 0, 128},
    {8, 0, 241, 0, 128},
};
static const hUGEWaveInstr_t wave_instruments[] = {
    {0, 32, 0, 0, 128},
    {0, 32, 1, 0, 128},
};
static const hUGENoiseInstr_t noise_instruments[] = {
    {210, 0, 120, 0, 0},
    {90, 0, 0, 0, 0},
    {243, 0, 0, 0, 0},
};

static const unsigned char waves[] = {
    0,
    0,
    255,
    255,
    255,
    255,
    255,
    255,
    255,
    255,
    255,
    255,
    255,
    255,
    255,
    255,
    0,
    0,
    0,
    0,
    255,
    255,
    255,
    255,
    255,
    255,
    255,
    255,
    255,
    255,
    255,
    255,
};

const hUGESong_t mg_main_music = {8, &order_cnt, order1, order2, order3, order4, duty_instruments, wave_instruments, noise_instruments, NULL, waves};
