/*
#include "../include/huge/include/hUGEDriver.h"
#include <stddef.h>

static const unsigned char order_cnt = 2;

static const unsigned char P0[] = {
    DN(G_6, 4, 0x000),
    DN(___, 0, 0x000),
    DN(F_6, 4, 0x000),
    DN(___, 0, 0x000),
    DN(D_6, 4, 0x000),
    DN(___, 0, 0x000),
    DN(C_6, 4, 0x000),
    DN(___, 0, 0x000),
    DN(G_5, 4, 0x000),
    DN(___, 0, 0x000),
    DN(___, 0, 0x000),
    DN(___, 0, 0x000),
    DN(D_4, 4, 0x000),
    DN(___, 0, 0x000),
    DN(E_4, 4, 0x000),
    DN(___, 0, 0x000),
    DN(F_4, 4, 0x000),
    DN(___, 0, 0x000),
    DN(A_4, 4, 0x000),
    DN(___, 0, 0x000),
    DN(C_5, 4, 0x000),
    DN(___, 0, 0x000),
    DN(___, 0, 0x000),
    DN(___, 0, 0x000),
    DN(___, 0, 0x000),
    DN(___, 0, 0x000),
    DN(___, 0, 0x000),
    DN(___, 0, 0x000),
    DN(___, 0, 0x000),
    DN(___, 0, 0x000),
    DN(___, 0, 0x000),
    DN(___, 0, 0x000),
    DN(___, 0, 0x000),
    DN(___, 0, 0x000),
    DN(___, 0, 0x000),
    DN(___, 0, 0x000),
    DN(E_4, 4, 0x000),
    DN(___, 0, 0x000),
    DN(G_4, 4, 0x000),
    DN(___, 0, 0x000),
    DN(A_4, 4, 0x000),
    DN(___, 0, 0x000),
    DN(D_5, 4, 0x000),
    DN(___, 0, 0x000),
    DN(___, 0, 0x000),
    DN(___, 0, 0x000),
    DN(___, 0, 0x000),
    DN(___, 0, 0x000),
    DN(___, 0, 0x000),
    DN(___, 0, 0x000),
    DN(___, 0, 0x000),
    DN(___, 0, 0x000),
    DN(___, 0, 0x000),
    DN(___, 0, 0x000),
    DN(___, 0, 0x000),
    DN(___, 0, 0x000),
    DN(___, 0, 0x000),
    DN(___, 0, 0x000),
    DN(___, 0, 0x000),
    DN(___, 0, 0x000),
    DN(___, 0, 0x000),
    DN(___, 0, 0x000),
    DN(___, 0, 0x000),
    DN(___, 0, 0x000),
};
static const unsigned char P1[] = {
    DN(___, 0, 0x000),
    DN(___, 0, 0x000),
    DN(___, 0, 0x000),
    DN(___, 0, 0x000),
    DN(___, 0, 0x000),
    DN(___, 0, 0x000),
    DN(___, 0, 0x000),
    DN(___, 0, 0x000),
    DN(___, 0, 0x000),
    DN(___, 0, 0x000),
    DN(___, 0, 0x000),
    DN(___, 0, 0x000),
    DN(___, 0, 0x000),
    DN(___, 0, 0x000),
    DN(___, 0, 0x000),
    DN(___, 0, 0x000),
    DN(___, 0, 0x000),
    DN(___, 0, 0x000),
    DN(___, 0, 0x000),
    DN(___, 0, 0x000),
    DN(___, 0, 0x000),
    DN(___, 0, 0x000),
    DN(___, 0, 0x000),
    DN(___, 0, 0x000),
    DN(___, 0, 0x000),
    DN(___, 0, 0x000),
    DN(___, 0, 0x000),
    DN(___, 0, 0x000),
    DN(___, 0, 0x000),
    DN(___, 0, 0x000),
    DN(___, 0, 0x000),
    DN(___, 0, 0x000),
    DN(___, 0, 0x000),
    DN(___, 0, 0x000),
    DN(___, 0, 0x000),
    DN(___, 0, 0x000),
    DN(___, 0, 0x000),
    DN(___, 0, 0x000),
    DN(___, 0, 0x000),
    DN(___, 0, 0x000),
    DN(___, 0, 0x000),
    DN(___, 0, 0x000),
    DN(___, 0, 0x000),
    DN(___, 0, 0x000),
    DN(___, 0, 0x000),
    DN(___, 0, 0x000),
    DN(___, 0, 0x000),
    DN(___, 0, 0x000),
    DN(___, 0, 0x000),
    DN(___, 0, 0x000),
    DN(___, 0, 0x000),
    DN(___, 0, 0x000),
    DN(___, 0, 0x000),
    DN(___, 0, 0x000),
    DN(___, 0, 0x000),
    DN(___, 0, 0x000),
    DN(___, 0, 0x000),
    DN(___, 0, 0x000),
    DN(___, 0, 0x000),
    DN(___, 0, 0x000),
    DN(___, 0, 0x000),
    DN(___, 0, 0x000),
    DN(___, 0, 0x000),
    DN(___, 0, 0x000),
};
static const unsigned char P2[] = {
    DN(C_3, 1, 0x000),
    DN(___, 0, 0x000),
    DN(D_3, 1, 0x000),
    DN(___, 0, 0x000),
    DN(F_3, 1, 0x000),
    DN(___, 0, 0x000),
    DN(G_3, 1, 0x000),
    DN(___, 0, 0x000),
    DN(___, 0, 0x000),
    DN(___, 0, 0x000),
    DN(___, 0, 0x000),
    DN(___, 0, 0x000),
    DN(C_4, 1, 0x000),
    DN(___, 0, 0x000),
    DN(___, 0, 0x000),
    DN(___, 0, 0x000),
    DN(F_4, 1, 0x000),
    DN(___, 0, 0x000),
    DN(G_3, 1, 0x000),
    DN(___, 0, 0x000),
    DN(___, 0, 0x000),
    DN(___, 0, 0x000),
    DN(___, 0, 0x000),
    DN(___, 0, 0x000),
    DN(C_3, 1, 0x000),
    DN(___, 0, 0x000),
    DN(D_3, 1, 0x000),
    DN(___, 0, 0x000),
    DN(F_3, 1, 0x000),
    DN(___, 0, 0x000),
    DN(G_3, 1, 0x000),
    DN(___, 0, 0x000),
    DN(___, 0, 0x000),
    DN(___, 0, 0x000),
    DN(___, 0, 0x000),
    DN(___, 0, 0x000),
    DN(C_4, 1, 0x000),
    DN(___, 0, 0x000),
    DN(___, 0, 0x000),
    DN(___, 0, 0x000),
    DN(F_4, 1, 0x000),
    DN(___, 0, 0x000),
    DN(G_3, 1, 0x000),
    DN(___, 0, 0x000),
    DN(___, 0, 0x000),
    DN(___, 0, 0x000),
    DN(___, 0, 0x000),
    DN(___, 0, 0x000),
    DN(C_3, 1, 0x000),
    DN(___, 0, 0x000),
    DN(D_3, 1, 0x000),
    DN(___, 0, 0x000),
    DN(F_3, 1, 0x000),
    DN(___, 0, 0x000),
    DN(G_3, 1, 0x080),
    DN(___, 0, 0x000),
    DN(___, 0, 0x000),
    DN(___, 0, 0x000),
    DN(___, 0, 0x000),
    DN(___, 0, 0x000),
    DN(A_3, 4, 0x000),
    DN(___, 0, 0x000),
    DN(___, 0, 0x000),
    DN(___, 0, 0x000),
};
static const unsigned char P3[] = {
    DN(Ds8, 1, 0xF04),
    DN(___, 0, 0x000),
    DN(___, 0, 0x000),
    DN(___, 0, 0x000),
    DN(Ds8, 1, 0xF04),
    DN(___, 0, 0x000),
    DN(Ds8, 1, 0xF04),
    DN(___, 0, 0x000),
    DN(Ds8, 1, 0xF04),
    DN(___, 0, 0x000),
    DN(___, 0, 0x000),
    DN(___, 0, 0x000),
    DN(Ds8, 1, 0xF04),
    DN(___, 0, 0x000),
    DN(Ds8, 1, 0x000),
    DN(___, 0, 0x000),
    DN(Ds8, 1, 0xF04),
    DN(___, 0, 0x000),
    DN(___, 0, 0x000),
    DN(___, 0, 0x000),
    DN(Ds8, 1, 0xF04),
    DN(___, 0, 0x000),
    DN(Ds8, 1, 0xF04),
    DN(___, 0, 0x000),
    DN(Ds8, 1, 0xF04),
    DN(___, 0, 0x000),
    DN(___, 0, 0x000),
    DN(___, 0, 0x000),
    DN(D_8, 3, 0x000),
    DN(___, 0, 0x000),
    DN(Ds8, 1, 0x000),
    DN(___, 0, 0x000),
    DN(Ds8, 1, 0xF04),
    DN(___, 0, 0x000),
    DN(___, 0, 0x000),
    DN(___, 0, 0x000),
    DN(Ds8, 1, 0xF04),
    DN(___, 0, 0x000),
    DN(Ds8, 1, 0xF04),
    DN(___, 0, 0x000),
    DN(Ds8, 1, 0xF04),
    DN(___, 0, 0x000),
    DN(___, 0, 0x000),
    DN(___, 0, 0x000),
    DN(Ds8, 1, 0xF04),
    DN(___, 0, 0x000),
    DN(Ds8, 1, 0xF04),
    DN(___, 0, 0x000),
    DN(Ds8, 1, 0xF04),
    DN(___, 0, 0x000),
    DN(___, 0, 0x000),
    DN(___, 0, 0x000),
    DN(Ds8, 1, 0xF04),
    DN(___, 0, 0x000),
    DN(Ds8, 1, 0xF04),
    DN(Ds8, 1, 0xF04),
    DN(___, 0, 0x000),
    DN(___, 0, 0x000),
    DN(___, 0, 0x000),
    DN(Ds8, 1, 0xF04),
    DN(___, 0, 0x000),
    DN(Ds8, 1, 0xF04),
    DN(Ds8, 1, 0xF04),
    DN(___, 0, 0x000),
};

static const unsigned char *const order1[] = {P0};
static const unsigned char *const order2[] = {P1};
static const unsigned char *const order3[] = {P2};
static const unsigned char *const order4[] = {P3};

static const hUGEDutyInstr_t duty_instruments[] = {
    {8, 0, 240, 0, 128},
    {8, 64, 240, 0, 128},
    {8, 128, 240, 0, 128},
    {8, 192, 240, 0, 128},
};
static const hUGEWaveInstr_t wave_instruments[] = {
    {0, 32, 0, 0, 128},
    {0, 32, 1, 0, 128},
    {0, 32, 2, 0, 128},
    {0, 32, 3, 0, 128},
};
static const hUGENoiseInstr_t noise_instruments[] = {
    {210, 0, 120, 0, 0},
    {90, 0, 0, 0, 0},
    {242, 0, 0, 0, 0},
};

static const unsigned char waves[] = {
    0,
    0,
    255,
    255,
    255,
    255,
    255,
    255,
    255,
    255,
    255,
    255,
    255,
    255,
    255,
    255,
    0,
    0,
    0,
    0,
    255,
    255,
    255,
    255,
    255,
    255,
    255,
    255,
    255,
    255,
    255,
    255,
    0,
    0,
    0,
    0,
    0,
    0,
    0,
    0,
    255,
    255,
    255,
    255,
    255,
    255,
    255,
    255,
    0,
    0,
    0,
    0,
    0,
    0,
    0,
    0,
    0,
    0,
    0,
    0,
    255,
    255,
    255,
    255,
};

const hUGESong_t test_song = {8, &order_cnt, order1, order2, order3, order4,
duty_instruments, wave_instruments, noise_instruments, NULL, waves};
*/
